<svg width="24" height="25" viewBox="0 0 24 25" fill="none" xmlns="http://www.w3.org/2000/svg">
<path d="M9.3 17.874L11.1 18.774V12.843C11.099 12.6069 11.0053 12.3806 10.839 12.213L5.007 6.3H19.011L13.188 12.213C13.0217 12.3806 12.928 12.6069 12.927 12.843L12.9 19.8L14.7 20.7V13.212L20.622 7.2C20.8589 6.95967 20.9942 6.63741 21 6.3V5.4C21 5.16131 20.9052 4.93239 20.7364 4.7636C20.5676 4.59482 20.3387 4.5 20.1 4.5H3.9C3.66131 4.5 3.43239 4.59482 3.2636 4.7636C3.09482 4.93239 3 5.16131 3 5.4V6.3C3.00576 6.63741 3.14111 6.95967 3.378 7.2L9.3 13.212V17.874Z" fill="#1D1D1B"/>
</svg>
