<svg width="28" height="28" viewBox="0 0 28 28" fill="none" xmlns="http://www.w3.org/2000/svg">
<path d="M13.3541 23.1718H13.3032C13.1506 23.1718 12.998 23.1464 12.8708 23.0701C11.8788 22.5613 5.97762 18.3135 3.9936 14.9051C3.3577 13.8113 3.02703 12.6667 3.00159 11.4966C2.97616 10.4029 3.25595 9.30912 3.79011 8.39342C4.85843 6.56201 6.79158 5.46826 9.00452 5.46826C9.97109 5.46826 11.0394 5.87524 11.9551 6.56201C12.3621 6.86725 12.8708 7.3251 13.3032 7.961C13.7356 7.3251 14.2444 6.89268 14.6513 6.56201C15.567 5.87524 16.6608 5.46826 17.6019 5.46826C19.8149 5.46826 21.7735 6.56201 22.8163 8.39342C23.3505 9.33455 23.6303 10.4029 23.6049 11.4966C23.5794 12.6667 23.2487 13.8113 22.6128 14.9051C20.6288 18.3135 14.7276 22.5613 13.7356 23.0701C13.6593 23.1209 13.5067 23.1718 13.3541 23.1718ZM9.02995 7.3251C7.50379 7.3251 6.15567 8.06275 5.44346 9.30912C4.65494 10.6827 4.73125 12.3615 5.64695 13.9385C6.35916 15.1849 7.91076 16.8382 10.022 18.6187C11.4209 19.8142 12.6673 20.7045 13.3287 21.1369C13.9646 20.7045 15.2109 19.8142 16.6354 18.6187C18.7466 16.8382 20.2982 15.1849 21.0358 13.9385C21.9515 12.3615 22.0278 10.6827 21.2393 9.30912C20.5271 8.06275 19.179 7.3251 17.6528 7.3251C17.1186 7.3251 16.4064 7.6049 15.8214 8.03731C15.3127 8.41885 14.6768 9.08019 14.3461 10.0976C14.2189 10.5046 13.8628 10.759 13.4558 10.759H13.2269C12.8199 10.759 12.4384 10.4792 12.3366 10.0976C12.0314 9.05475 11.3701 8.39342 10.8614 8.03731C10.2509 7.57946 9.56411 7.3251 9.02995 7.3251Z" fill="#1D1D1B"/>
</svg>
