<svg width="24" height="24" viewBox="0 0 24 24" fill="none" xmlns="http://www.w3.org/2000/svg">
<path d="M8.875 14.5C11.1187 14.5 12.9375 12.6812 12.9375 10.4375C12.9375 8.19384 11.1187 6.375 8.875 6.375C6.63134 6.375 4.8125 8.19384 4.8125 10.4375C4.8125 12.6812 6.63134 14.5 8.875 14.5Z" stroke="#1D1D1B" stroke-width="1.2" stroke-miterlimit="10"/>
<path d="M14.1418 6.52628C14.7006 6.36885 15.2866 6.33299 15.8604 6.4211C16.4342 6.50922 16.9825 6.71928 17.4682 7.03713C17.954 7.35497 18.366 7.77323 18.6766 8.26372C18.9871 8.75421 19.1889 9.30555 19.2684 9.8806C19.3479 10.4557 19.3032 11.0411 19.1374 11.5974C18.9716 12.1537 18.6885 12.6681 18.3072 13.1058C17.9259 13.5435 17.4552 13.8944 16.9268 14.1349C16.3984 14.3754 15.8247 14.4999 15.2442 14.5" stroke="#1D1D1B" stroke-width="1.2" stroke-linecap="round" stroke-linejoin="round"/>
<path d="M3.25 17.4216C3.88448 16.5191 4.72679 15.7825 5.70582 15.274C6.68485 14.7655 7.77186 14.5 8.87507 14.5C9.97828 14.5 11.0653 14.7654 12.0444 15.2738C13.0234 15.7822 13.8658 16.5187 14.5004 17.4212" stroke="#1D1D1B" stroke-width="1.2" stroke-linecap="round" stroke-linejoin="round"/>
<path d="M15.2422 14.5C16.3455 14.4992 17.4328 14.7643 18.4119 15.2728C19.3911 15.7813 20.2333 16.5182 20.8672 17.4212" stroke="#1D1D1B" stroke-width="1.2" stroke-linecap="round" stroke-linejoin="round"/>
</svg>
